<svg xmlns="http://www.w3.org/2000/svg" viewBox="0 0 36 36"><path fill="#66757F" d="M33.689 26.513a4.547 4.547 0 0 0-1.056-4.446c.622-2.05.843-4.125.664-6.146.623-.655.915-1.6.682-2.544A16.41 16.41 0 0 0 18.001.861 16.411 16.411 0 0 0 2.023 13.377a2.739 2.739 0 0 0 .682 2.544c-.18 2.02.042 4.096.664 6.147a4.541 4.541 0 0 0-1.056 4.444A3.816 3.816 0 0 0 1 29.38a3.843 3.843 0 0 0 3.839 3.839c.023 0 .044-.007.067-.007 1.159 1.626 3.284 2.365 5.254 1.654a3.413 3.413 0 0 0 1.585-1.181c.312.367.767.588 1.249.588a1.646 1.646 0 0 0 1.547-2.205l-4.267-11.814a1.644 1.644 0 0 0-2.106-.988 1.637 1.637 0 0 0-1.08 1.532 3.447 3.447 0 0 0-.666-.093 12.898 12.898 0 0 1-.429-4.273 2.718 2.718 0 0 0 1.356-1.746C8.554 9.777 12.935 6.347 18 6.347s9.446 3.43 10.653 8.34a2.735 2.735 0 0 0 1.357 1.757 12.891 12.891 0 0 1-.431 4.262c-.226.01-.448.041-.665.093a1.642 1.642 0 0 0-3.188-.544l-4.268 11.814a1.647 1.647 0 0 0 1.547 2.205c.483 0 .938-.22 1.249-.588.387.523.927.943 1.585 1.181 1.97.712 4.095-.029 5.254-1.654.023 0 .044.007.067.007a3.843 3.843 0 0 0 3.839-3.839 3.8 3.8 0 0 0-1.31-2.868z"/><path fill="#31373D" d="M28.763 15.181c-1.428-8.017-11.541-11.605-17.73-6.35a10.992 10.992 0 0 0-3.793 6.35c-.452 2.115-3.612 1.488-3.228-.641C5.437 3.551 19.08-1.253 27.324 5.962a13.83 13.83 0 0 1 4.667 8.578 1.65 1.65 0 0 1-1.381 1.95 1.648 1.648 0 0 1-1.847-1.309zM3.369 22.067a4.541 4.541 0 0 0-1.056 4.444c.024.079.032.16.06.239l1.939 5.371c.146.403.356.758.593 1.09 1.159 1.626 3.284 2.365 5.254 1.654a3.413 3.413 0 0 0 1.585-1.181 1.622 1.622 0 0 1-.298-.498L7.18 21.373a1.646 1.646 0 0 1-.093-.575 3.447 3.447 0 0 0-1.971.104 4.551 4.551 0 0 0-1.747 1.165zM33.63 26.752c.029-.079.036-.159.06-.239a4.547 4.547 0 0 0-1.056-4.446 4.516 4.516 0 0 0-1.747-1.164 3.384 3.384 0 0 0-1.305-.197c-.226.01-.448.041-.665.093.002.191-.024.385-.092.575l-4.268 11.814a1.61 1.61 0 0 1-.298.498c.387.523.927.943 1.585 1.181 1.97.712 4.095-.029 5.254-1.654.237-.332.449-.688.593-1.09l1.939-5.371z"/></svg>
